HIERARCHY
ROOT Hips
{
	OFFSET -3.958830 18.904000 13.208200
	CHANNELS 6 Xposition Yposition Zposition Zrotation Yrotation Xrotation 
	JOINT LHipJoint
	{
		OFFSET 0.000000 0.000000 0.000000
		CHANNELS 3 Zrotation Yrotation Xrotation
		JOINT LeftUpLeg
		{
			OFFSET 1.800000 -1.400000 0.085000
			CHANNELS 3 Zrotation Yrotation Xrotation
			JOINT LeftLeg
			{
				OFFSET 2.215000 -6.000000 0.000000
				CHANNELS 3 Zrotation Yrotation Xrotation
				JOINT LeftFoot
				{
					OFFSET 2.500000 -6.900000 0.000000
					CHANNELS 3 Zrotation Yrotation Xrotation
					JOINT LeftToeBase
					{
						OFFSET 0.200000 -0.500000 1.950000
						CHANNELS 3 Zrotation Yrotation Xrotation
						End Site
						{
							OFFSET 0.000000 0.000000 0.000000
						}
					}
				}
			}
		}
	}
	JOINT RHipJoint
	{
		OFFSET 0.000000 0.000000 0.000000
		CHANNELS 3 Zrotation Yrotation Xrotation
		JOINT RightUpLeg
		{
			OFFSET -1.800000 -1.400000 0.085000
			CHANNELS 3 Zrotation Yrotation Xrotation
			JOINT RightLeg
			{
				OFFSET -2.215000 -6.000000 0.000000
				CHANNELS 3 Zrotation Yrotation Xrotation
				JOINT RightFoot
				{
					OFFSET -2.500000 -6.900000 0.000000
					CHANNELS 3 Zrotation Yrotation Xrotation
					JOINT RightToeBase
					{
						OFFSET -0.200000 -0.500000 1.950000
						CHANNELS 3 Zrotation Yrotation Xrotation
						End Site
						{
							OFFSET 0.000000 0.000000 0.000000
						}
					}
				}
			}
		}
	}
	JOINT LowerBack
	{
		OFFSET 0.000000 0.000000 0.000000
		CHANNELS 3 Zrotation Yrotation Xrotation
		JOINT Spine
		{
			OFFSET -0.087000 1.940000 -0.288900
			CHANNELS 3 Zrotation Yrotation Xrotation
			JOINT Spine1
			{
				OFFSET 0.000000 1.950000 0.060000
				CHANNELS 3 Zrotation Yrotation Xrotation
				JOINT Neck
				{
					OFFSET 0.000000 0.000000 0.000000
					CHANNELS 3 Zrotation Yrotation Xrotation
					JOINT Neck1
					{
						OFFSET 0.000000 1.600000 0.340000
						CHANNELS 3 Zrotation Yrotation Xrotation
						JOINT Head
						{
							OFFSET 0.000000 1.667000 -0.240000
							CHANNELS 3 Zrotation Yrotation Xrotation
							End Site
							{
								OFFSET 0.000000 0.000000 0.000000
							}
						}
					}
				}
				JOINT LeftShoulder
				{
					OFFSET 0.000000 0.000000 0.000000
					CHANNELS 3 Zrotation Yrotation Xrotation
					JOINT LeftArm
					{
						OFFSET 2.700000 1.550000 -0.730000
						CHANNELS 3 Zrotation Yrotation Xrotation
						JOINT LeftForeArm
						{
							OFFSET 5.450000 0.000000 0.000000
							CHANNELS 3 Zrotation Yrotation Xrotation
							JOINT LeftHand
							{
								OFFSET 3.450000 0.000000 0.000000
								CHANNELS 3 Zrotation Yrotation Xrotation
								JOINT LeftHandIndex1
								{
									OFFSET 0.750000 0.000000 0.000000
									CHANNELS 3 Zrotation Yrotation Xrotation
									End Site
									{
										OFFSET 0.000000 0.000000 0.000000
									}
								}
							}
						}
					}
				}
				JOINT RightShoulder
				{
					OFFSET 0.000000 0.000000 0.000000
					CHANNELS 3 Zrotation Yrotation Xrotation
					JOINT RightArm
					{
						OFFSET -2.700000 1.550000 -0.730000
						CHANNELS 3 Zrotation Yrotation Xrotation
						JOINT RightForeArm
						{
							OFFSET -5.450000 0.000000 0.000000
							CHANNELS 3 Zrotation Yrotation Xrotation
							JOINT RightHand
							{
								OFFSET -3.450000 0.000000 0.000000
								CHANNELS 3 Zrotation Yrotation Xrotation
								JOINT RightHandIndex1
								{
									OFFSET -0.750000 0.000000 0.000000
									CHANNELS 3 Zrotation Yrotation Xrotation
									End Site
									{
										OFFSET 0.000000 0.000000 0.000000
									}
								}
							}
						}
					}
				}
			}
		}
	}
}
MOTION
Frames: 7
Frame Time: 0.016667
-27.550210 15.877440 -12.140280 -10.291080 5.949543 -14.004080 -14.994590 7.865592 7.599923 47.087860 8.248609 -20.544867 -5.329009 4.322537 -17.638711 -0.024003 8.126373 1.549627 0.192310 -0.028240 0.468370 19.244950 -9.611802 1.819946 -9.354935 6.242199 -1.780143 20.976302 -17.927145 43.092845 -1.651812 -8.835783 1.081131 0.131340 -0.032390 -0.174790 -5.386132 2.989404 -10.000574 15.709558 -6.917824 34.193343 -16.756341 8.135510 -0.470104 -6.312905 -8.646181 -18.509303 -14.779015 6.969546 27.698360 -4.441970 4.506410 -37.333870 12.540231 -24.347376 2.514196 39.224649 7.750904 -7.657599 38.637147 -29.555294 -4.975206 -3.503430 2.290474 1.054070 -0.394940 0.206330 -0.173420 1.242868 34.810852 16.483300 29.601398 23.511691 -2.639842 8.116529 34.990711 1.298084 1.918712 -0.797116 -0.608010 0.667810 0.266220 -0.388780 
-27.397980 15.819150 -11.955590 -11.473772 11.703682 -2.879688 -15.440350 7.680239 8.224131 45.743559 10.272863 -33.817901 -6.894807 4.333647 -16.016948 -1.704366 7.941943 0.282785 0.918630 0.150990 1.359080 18.999020 -8.167339 2.111497 -10.399130 8.810561 -11.719768 31.094804 -20.515451 36.544889 -1.472219 -9.022505 0.875013 0.402080 -1.480990 0.217160 -4.277052 0.675628 -10.356091 15.157811 -7.141590 23.778192 -18.196400 7.491310 8.396005 2.771388 -10.860337 -23.588086 -12.116789 -17.537774 12.645183 -53.564370 -10.898240 -34.346950 0.459458 -30.720230 0.474977 61.422919 25.091521 2.464708 45.941461 -32.949721 -5.976250 -3.645704 3.106470 1.661420 -0.506130 0.279070 -0.797140 -3.654042 49.145909 26.011524 34.718249 14.727253 -25.807320 -30.920061 66.898763 -27.039947 0.288540 -1.397694 -0.432000 -0.539960 0.425340 -1.451440 
-27.298000 15.786500 -12.122500 -12.140109 10.436145 -14.278429 -15.176787 7.838385 7.519671 46.675273 9.641556 -26.079736 -9.593302 5.222844 -12.098126 -0.066440 8.226915 1.496217 0.141990 -0.119790 0.414890 19.140733 -8.632403 2.450770 -11.040706 8.010876 -4.894843 38.895116 -22.264350 34.661116 -1.844596 -9.189075 0.994287 0.054270 -0.037960 -0.249100 -4.930090 1.784038 -10.265828 15.854870 -8.174842 38.598629 -14.995917 7.966377 -4.886865 -4.937850 -11.866272 -19.558781 -21.195504 2.198348 25.239816 -4.576640 -2.029700 -37.310050 10.140905 -22.746234 2.279150 39.308931 4.309752 -9.025701 43.707564 -20.281873 -5.436106 -3.588585 2.337969 1.043550 -0.474740 0.163480 -0.153830 1.857513 35.826120 17.084308 28.638354 20.234492 -9.645793 6.774034 50.581972 0.772248 1.819826 -1.017135 -0.611980 0.692510 0.261900 -0.336070 
-27.152360 15.738670 -12.071050 -11.433226 8.229640 -13.981377 -15.171798 7.724058 7.207357 48.279621 9.877414 -24.557071 -12.586847 6.408170 -7.434080 -0.039325 8.597445 1.430140 0.085170 -0.014620 0.180360 19.157882 -8.054105 3.126615 -12.854206 9.812484 -9.255360 55.674621 -21.499160 24.130969 -1.936477 -8.863816 1.196918 0.138990 0.176370 -0.305220 -4.952006 1.700974 -10.447140 13.677152 -5.802965 38.497831 -12.868464 9.572820 -7.492083 -6.813043 -11.422111 -18.734711 -20.834829 7.380377 25.167384 3.937990 1.418090 -38.916410 9.206641 -23.073394 2.168141 38.867352 0.324932 -9.679048 41.418199 -17.505147 -4.716188 -3.690953 2.117808 1.021680 -0.394700 0.165230 -0.032300 6.993169 33.770034 15.847418 26.966160 20.298792 -6.735391 12.744533 46.863482 3.624128 1.890507 -0.852017 -0.675860 0.906670 0.272340 -0.207200 
-26.981050 15.699130 -12.080230 -12.300410 8.972402 -19.053894 -15.242397 8.197242 6.832928 48.215605 10.415589 -23.860452 -14.503940 8.208600 -1.232509 0.005244 8.800298 1.337770 0.064960 -0.121090 0.276500 19.072160 -7.866526 3.335856 -9.867329 10.939526 -8.945513 58.644018 -20.506973 22.482228 -1.942164 -8.729946 1.249828 0.026560 0.084730 -0.322040 -4.731546 1.059903 -10.406173 13.704102 -5.453100 44.537500 -14.012429 12.226027 -5.852584 -4.278549 -10.617337 -22.316067 -21.566503 8.448245 28.676674 2.781010 3.197880 -34.121740 11.633532 -25.435038 2.945123 40.646596 -0.371483 -11.950385 38.143037 -10.869575 -3.583152 -3.799998 2.135026 1.030230 -0.439590 0.154730 -0.074980 1.718431 37.205662 18.228936 28.901184 14.978691 -11.881668 9.956957 51.042654 1.902518 1.790109 -1.040133 -0.654490 0.769570 0.223870 -0.264890 
-26.806500 15.616930 -11.992510 -12.156413 7.676388 -15.512906 -15.283432 8.272880 6.662183 48.113038 10.949516 -25.924673 -15.898309 9.941026 3.719932 0.125646 9.072048 1.326664 -0.196120 -0.299190 0.076910 19.021048 -7.505243 3.747115 -12.081509 11.480636 -10.988261 65.404466 -16.010518 14.406795 -1.762817 -8.096590 1.552187 -0.082630 0.283320 -0.341110 -4.593041 0.766944 -10.561453 12.645606 -4.654230 41.532383 -15.458117 12.579964 -9.943058 -3.423077 -9.161556 -23.542753 -17.793074 11.108540 29.406704 1.481700 7.030240 -29.485190 9.220695 -26.741761 3.711917 44.748568 3.355283 -9.849473 35.858411 -13.396802 -2.411341 -3.900162 1.818006 0.897500 -0.263330 0.096530 -0.069540 2.772132 37.960044 18.638559 31.700074 16.157515 -8.505307 13.516578 46.033303 3.216805 1.905616 -0.815204 -0.709440 0.856630 0.292700 -0.191720 
-26.615690 15.578560 -11.990810 -11.628566 7.336536 -18.304185 -15.354919 8.711775 6.426648 47.588212 11.336081 -25.182463 -18.522511 11.986929 9.206791 0.271592 9.332286 1.139470 -0.087670 -0.118170 0.053510 18.935938 -7.439503 3.708059 -11.436482 12.802813 -11.695764 63.458902 -17.703194 18.126590 -1.899234 -8.304527 1.461421 -0.070780 0.102850 -0.288930 -4.392671 0.156633 -10.403334 12.595659 -3.540415 45.054788 -13.178498 12.167512 -10.743861 -2.201677 -11.330331 -22.870427 -25.668592 14.481962 31.214449 1.694360 8.091700 -33.403030 8.255162 -24.603544 3.812502 42.243495 -0.415812 -10.518312 34.905956 -8.616917 -2.262855 -3.834597 1.983807 0.900020 -0.396400 0.224730 -0.063990 1.852591 37.258873 16.976443 29.161424 18.101241 -6.675166 19.499682 45.363497 5.986221 2.023396 -0.817122 -0.518580 0.735280 0.254800 -0.148050 
